<mxfile host="65bd71144e">
    <diagram id="y6yWmJWhMZ6w7K0qYgY1" name="Page-1">
        <mxGraphModel dx="1511" dy="596" grid="1" gridSize="10" guides="1" tooltips="1" connect="1" arrows="1" fold="1" page="1" pageScale="1" pageWidth="1169" pageHeight="827" background="#FFFFFF" math="0" shadow="0">
            <root>
                <mxCell id="0"/>
                <mxCell id="1" parent="0"/>
                <mxCell id="2" value="VPC" style="sketch=0;outlineConnect=0;gradientColor=none;html=1;whiteSpace=wrap;fontSize=12;fontStyle=1;shape=mxgraph.aws4.group;grIcon=mxgraph.aws4.group_vpc;strokeColor=#879196;fillColor=none;verticalAlign=top;align=left;spacingLeft=30;fontColor=#879196;dashed=0;" parent="1" vertex="1">
                    <mxGeometry x="150" y="50" width="860" height="540" as="geometry"/>
                </mxCell>
                <mxCell id="8" value="Private subnet 0" style="points=[[0,0],[0.25,0],[0.5,0],[0.75,0],[1,0],[1,0.25],[1,0.5],[1,0.75],[1,1],[0.75,1],[0.5,1],[0.25,1],[0,1],[0,0.75],[0,0.5],[0,0.25]];outlineConnect=0;gradientColor=none;html=1;whiteSpace=wrap;fontSize=12;fontStyle=1;container=1;pointerEvents=0;collapsible=0;recursiveResize=0;shape=mxgraph.aws4.group;grIcon=mxgraph.aws4.group_security_group;grStroke=0;strokeColor=#147EBA;fillColor=#E6F2F8;verticalAlign=top;align=left;spacingLeft=30;fontColor=#147EBA;dashed=0;" parent="1" vertex="1">
                    <mxGeometry x="380" y="330" width="600" height="240" as="geometry"/>
                </mxCell>
                <mxCell id="41" value="" style="sketch=0;outlineConnect=0;fontColor=#232F3E;gradientColor=none;fillColor=#4D27AA;strokeColor=none;dashed=0;verticalLabelPosition=bottom;verticalAlign=top;align=center;html=1;fontSize=12;fontStyle=0;aspect=fixed;pointerEvents=1;shape=mxgraph.aws4.endpoints;" vertex="1" parent="8">
                    <mxGeometry x="58.69" y="138" width="43.69" height="43.69" as="geometry"/>
                </mxCell>
                <mxCell id="31" value="Availability Zone 1" style="fillColor=none;strokeColor=#147EBA;dashed=1;verticalAlign=top;fontStyle=1;fontColor=#147EBA;rotation=90;" parent="1" vertex="1">
                    <mxGeometry x="521.5" y="54.76" width="260.8" height="789.8" as="geometry"/>
                </mxCell>
                <mxCell id="26" value="Availability Zone 2" style="fillColor=none;strokeColor=#147EBA;dashed=1;verticalAlign=top;fontStyle=1;fontColor=#147EBA;rotation=90;" parent="1" vertex="1">
                    <mxGeometry x="540.1" y="-214.67" width="226.13" height="788.81" as="geometry"/>
                </mxCell>
                <mxCell id="95" style="edgeStyle=none;html=1;strokeWidth=2;fontColor=#000000;startArrow=classic;startFill=1;" edge="1" parent="1" source="3" target="53">
                    <mxGeometry relative="1" as="geometry">
                        <Array as="points">
                            <mxPoint x="210" y="394"/>
                        </Array>
                    </mxGeometry>
                </mxCell>
                <mxCell id="113" style="edgeStyle=none;html=1;strokeWidth=2;fontColor=#000000;startArrow=classic;startFill=1;" edge="1" parent="1" source="3" target="111">
                    <mxGeometry relative="1" as="geometry">
                        <Array as="points">
                            <mxPoint x="80" y="394"/>
                        </Array>
                    </mxGeometry>
                </mxCell>
                <mxCell id="3" value="" style="sketch=0;outlineConnect=0;fontColor=#232F3E;gradientColor=none;fillColor=#4D27AA;strokeColor=none;dashed=0;verticalLabelPosition=bottom;verticalAlign=top;align=center;html=1;fontSize=12;fontStyle=1;aspect=fixed;pointerEvents=1;shape=mxgraph.aws4.internet_gateway;" parent="1" vertex="1">
                    <mxGeometry x="126" y="368" width="52" height="52" as="geometry"/>
                </mxCell>
                <mxCell id="4" value="Public subnet 0" style="points=[[0,0],[0.25,0],[0.5,0],[0.75,0],[1,0],[1,0.25],[1,0.5],[1,0.75],[1,1],[0.75,1],[0.5,1],[0.25,1],[0,1],[0,0.75],[0,0.5],[0,0.25]];outlineConnect=0;gradientColor=none;html=1;whiteSpace=wrap;fontSize=12;fontStyle=1;container=1;pointerEvents=0;collapsible=0;recursiveResize=0;shape=mxgraph.aws4.group;grIcon=mxgraph.aws4.group_security_group;grStroke=0;strokeColor=#248814;fillColor=#E9F3E6;verticalAlign=top;align=left;spacingLeft=30;fontColor=#248814;dashed=0;" parent="1" vertex="1">
                    <mxGeometry x="270" y="330" width="90" height="230" as="geometry"/>
                </mxCell>
                <mxCell id="9" value="Private subnet 1" style="points=[[0,0],[0.25,0],[0.5,0],[0.75,0],[1,0],[1,0.25],[1,0.5],[1,0.75],[1,1],[0.75,1],[0.5,1],[0.25,1],[0,1],[0,0.75],[0,0.5],[0,0.25]];outlineConnect=0;gradientColor=none;html=1;whiteSpace=wrap;fontSize=12;fontStyle=1;container=1;pointerEvents=0;collapsible=0;recursiveResize=0;shape=mxgraph.aws4.group;grIcon=mxgraph.aws4.group_security_group;grStroke=0;strokeColor=#147EBA;fillColor=#E6F2F8;verticalAlign=top;align=left;spacingLeft=30;fontColor=#147EBA;dashed=0;" parent="1" vertex="1">
                    <mxGeometry x="380" y="80" width="600" height="200" as="geometry"/>
                </mxCell>
                <mxCell id="44" value="" style="sketch=0;outlineConnect=0;fontColor=#232F3E;gradientColor=none;fillColor=#D45B07;strokeColor=none;dashed=0;verticalLabelPosition=bottom;verticalAlign=top;align=center;html=1;fontSize=12;fontStyle=0;aspect=fixed;pointerEvents=1;shape=stencil(rZnhcoIwDMefhq8ebazKx53b3oPDOrm54gFOfPsBBWejbpLkbnde0vXH/VOStiGCdbVLDzbScVodbFZH8Bppvc0bu2l/W/fOe+Zzb7r0y3pP3Zm5q+rUZdYPVnVZfNpTvqmHWbnb2TKv/ejpmgRvUfzSOrs/WGeFc+3D88JVve8djW+L0n6UxdFtgoFx+JB2D7wZGIe/iu9OYBMqOXtTKW/ih4aIfe4eI5LpBEiECYtnCNmx9JFQIaPRg72aGQODD0bf8JxhjpnN58vBNUwzgwmBOUmMCcTwCTGBAMIEggqdCBMIKvRSmEBRwY8kezW1EiYQVCh2JBV7NRU7sxQ7uxU/kuzVZCcWO7cX0wG44nfVexUWfRPW+3GtVGjq3/njGwUTdp5QSPg+EDa/WBZAOQMYaQLhhYilCUu2CjZBEyIZSxOArYJPIEQyliYQMssIE4AQyViaQMgsI01Ykeo9qvVX5T8s32O9v74CjEX/ctWA0KZvfnzCeAVjnAEEEBQd6DQkgCAJWUojKEI0P5yav6joriCAIAkRCCd/UQXSTCDXgR9O4C8q8NMM+Ml+acBMQdx0eq47O6isN6isn1F36HynO3RG3SFG54qyNaIGnASCcEjAQvgIynEJCZFAEA6OWIgAghBOLEQAQbhMYCF8BOVahfvcAghKXzYRRzwVzmxfVPbf/wq/DKANmBCwkEDJAWnCcyr+jhasW/+Dbyyw3ub7/Z2p/aSb7za9139x6h0/);movable=1;resizable=1;rotatable=1;deletable=1;editable=1;connectable=1;" vertex="1" parent="9">
                    <mxGeometry x="205" y="43.69" width="153.31" height="153.31" as="geometry"/>
                </mxCell>
                <mxCell id="46" value="" style="sketch=0;outlineConnect=0;fontColor=#232F3E;gradientColor=none;fillColor=#D45B07;strokeColor=none;dashed=0;verticalLabelPosition=bottom;verticalAlign=top;align=center;html=1;fontSize=12;fontStyle=0;aspect=fixed;pointerEvents=1;shape=mxgraph.aws4.container_2;" vertex="1" parent="9">
                    <mxGeometry x="256" y="111.98" width="68.19" height="44.04" as="geometry"/>
                </mxCell>
                <mxCell id="43" value="" style="sketch=0;outlineConnect=0;fontColor=#232F3E;gradientColor=none;fillColor=#4D27AA;strokeColor=none;dashed=0;verticalLabelPosition=bottom;verticalAlign=top;align=center;html=1;fontSize=12;fontStyle=0;aspect=fixed;pointerEvents=1;shape=mxgraph.aws4.endpoints;" vertex="1" parent="9">
                    <mxGeometry x="510" y="93.71000000000001" width="51.31" height="51.31" as="geometry"/>
                </mxCell>
                <mxCell id="96" style="edgeStyle=none;html=1;strokeWidth=2;fontColor=#000000;startArrow=classic;startFill=1;" edge="1" parent="9" source="43" target="44">
                    <mxGeometry relative="1" as="geometry">
                        <mxPoint x="425" y="120.05421895583436" as="sourcePoint"/>
                    </mxGeometry>
                </mxCell>
                <mxCell id="122" value="&lt;p style=&quot;line-height: 0%;&quot;&gt;&lt;b&gt;Instance&lt;/b&gt;&lt;/p&gt;&lt;p style=&quot;line-height: 0%;&quot;&gt;&lt;b&gt;Connection&lt;/b&gt;&lt;/p&gt;&lt;p style=&quot;line-height: 0%;&quot;&gt;&lt;b&gt;&amp;nbsp;endpoint&lt;/b&gt;&lt;/p&gt;" style="text;align=center;verticalAlign=middle;resizable=0;points=[];autosize=1;strokeColor=none;fillColor=none;fontColor=#000000;imageAspect=1;glass=1;labelBackgroundColor=#E6E6E6;fontSize=14;html=1;" vertex="1" parent="9">
                    <mxGeometry x="485.65" y="23.710000000000008" width="100" height="70" as="geometry"/>
                </mxCell>
                <mxCell id="97" style="edgeStyle=none;html=1;strokeWidth=2;fontColor=#000000;startArrow=classic;startFill=1;" edge="1" parent="1" source="45" target="43">
                    <mxGeometry relative="1" as="geometry">
                        <Array as="points">
                            <mxPoint x="830" y="440"/>
                            <mxPoint x="830" y="200"/>
                        </Array>
                        <mxPoint x="805" y="200" as="targetPoint"/>
                    </mxGeometry>
                </mxCell>
                <mxCell id="48" value="" style="outlineConnect=0;gradientColor=none;html=1;whiteSpace=wrap;fontSize=12;fontStyle=0;strokeColor=#FF8000;fillColor=none;verticalAlign=top;align=center;fontColor=#858B94;dashed=1;spacingTop=3;strokeWidth=3;" vertex="1" parent="1">
                    <mxGeometry x="544" y="100" width="250" height="460" as="geometry"/>
                </mxCell>
                <mxCell id="45" value="" style="sketch=0;outlineConnect=0;fontColor=#232F3E;gradientColor=none;fillColor=#D45B07;strokeColor=none;dashed=0;verticalLabelPosition=bottom;verticalAlign=top;align=center;html=1;fontSize=12;fontStyle=0;aspect=fixed;pointerEvents=1;shape=stencil(rZnhcoIwDMefhq8ebazKx53b3oPDOrm54gFOfPsBBWejbpLkbnde0vXH/VOStiGCdbVLDzbScVodbFZH8Bppvc0bu2l/W/fOe+Zzb7r0y3pP3Zm5q+rUZdYPVnVZfNpTvqmHWbnb2TKv/ejpmgRvUfzSOrs/WGeFc+3D88JVve8djW+L0n6UxdFtgoFx+JB2D7wZGIe/iu9OYBMqOXtTKW/ih4aIfe4eI5LpBEiECYtnCNmx9JFQIaPRg72aGQODD0bf8JxhjpnN58vBNUwzgwmBOUmMCcTwCTGBAMIEggqdCBMIKvRSmEBRwY8kezW1EiYQVCh2JBV7NRU7sxQ7uxU/kuzVZCcWO7cX0wG44nfVexUWfRPW+3GtVGjq3/njGwUTdp5QSPg+EDa/WBZAOQMYaQLhhYilCUu2CjZBEyIZSxOArYJPIEQyliYQMssIE4AQyViaQMgsI01Ykeo9qvVX5T8s32O9v74CjEX/ctWA0KZvfnzCeAVjnAEEEBQd6DQkgCAJWUojKEI0P5yav6joriCAIAkRCCd/UQXSTCDXgR9O4C8q8NMM+Ml+acBMQdx0eq47O6isN6isn1F36HynO3RG3SFG54qyNaIGnASCcEjAQvgIynEJCZFAEA6OWIgAghBOLEQAQbhMYCF8BOVahfvcAghKXzYRRzwVzmxfVPbf/wq/DKANmBCwkEDJAWnCcyr+jhasW/+Dbyyw3ub7/Z2p/aSb7za9139x6h0/);movable=1;resizable=1;rotatable=1;deletable=1;editable=1;connectable=1;" vertex="1" parent="1">
                    <mxGeometry x="594" y="366" width="150" height="150" as="geometry"/>
                </mxCell>
                <mxCell id="47" value="" style="sketch=0;outlineConnect=0;fontColor=#232F3E;gradientColor=none;fillColor=#D45B07;strokeColor=none;dashed=0;verticalLabelPosition=bottom;verticalAlign=top;align=center;html=1;fontSize=12;fontStyle=0;aspect=fixed;pointerEvents=1;shape=mxgraph.aws4.container_2;" vertex="1" parent="1">
                    <mxGeometry x="635.16" y="408.69" width="69.68" height="45" as="geometry"/>
                </mxCell>
                <mxCell id="50" value="" style="sketch=0;points=[[0,0,0],[0.25,0,0],[0.5,0,0],[0.75,0,0],[1,0,0],[0,1,0],[0.25,1,0],[0.5,1,0],[0.75,1,0],[1,1,0],[0,0.25,0],[0,0.5,0],[0,0.75,0],[1,0.25,0],[1,0.5,0],[1,0.75,0]];outlineConnect=0;fontColor=#232F3E;gradientColor=#F78E04;gradientDirection=north;fillColor=#D05C17;strokeColor=#ffffff;dashed=0;verticalLabelPosition=bottom;verticalAlign=top;align=center;html=1;fontSize=12;fontStyle=0;aspect=fixed;shape=mxgraph.aws4.resourceIcon;resIcon=mxgraph.aws4.ecs;strokeWidth=3;" vertex="1" parent="1">
                    <mxGeometry x="569" y="652" width="65" height="65" as="geometry"/>
                </mxCell>
                <mxCell id="51" value="" style="sketch=0;points=[[0,0,0],[0.25,0,0],[0.5,0,0],[0.75,0,0],[1,0,0],[0,1,0],[0.25,1,0],[0.5,1,0],[0.75,1,0],[1,1,0],[0,0.25,0],[0,0.5,0],[0,0.75,0],[1,0.25,0],[1,0.5,0],[1,0.75,0]];outlineConnect=0;fontColor=#232F3E;gradientColor=#F78E04;gradientDirection=north;fillColor=#D05C17;strokeColor=#ffffff;dashed=0;verticalLabelPosition=bottom;verticalAlign=top;align=center;html=1;fontSize=12;fontStyle=0;aspect=fixed;shape=mxgraph.aws4.resourceIcon;resIcon=mxgraph.aws4.ecr;strokeWidth=3;" vertex="1" parent="1">
                    <mxGeometry x="426" y="652.47" width="70.53" height="70.53" as="geometry"/>
                </mxCell>
                <mxCell id="61" style="edgeStyle=none;html=1;entryX=0.5;entryY=0;entryDx=0;entryDy=0;entryPerimeter=0;strokeWidth=2;startArrow=classic;startFill=1;" edge="1" parent="1" source="42" target="50">
                    <mxGeometry relative="1" as="geometry">
                        <Array as="points">
                            <mxPoint x="510" y="620"/>
                            <mxPoint x="600" y="620"/>
                        </Array>
                    </mxGeometry>
                </mxCell>
                <mxCell id="67" style="edgeStyle=none;html=1;strokeWidth=2;startArrow=classic;startFill=1;" edge="1" parent="1" source="53" target="46">
                    <mxGeometry relative="1" as="geometry">
                        <Array as="points">
                            <mxPoint x="670" y="310"/>
                        </Array>
                    </mxGeometry>
                </mxCell>
                <mxCell id="68" style="edgeStyle=none;html=1;strokeWidth=2;startArrow=classic;startFill=1;" edge="1" parent="1" source="53" target="47">
                    <mxGeometry relative="1" as="geometry">
                        <Array as="points">
                            <mxPoint x="670" y="310"/>
                        </Array>
                    </mxGeometry>
                </mxCell>
                <mxCell id="53" value="" style="sketch=0;outlineConnect=0;fontColor=#232F3E;gradientColor=none;fillColor=#4D27AA;strokeColor=none;dashed=0;verticalLabelPosition=bottom;verticalAlign=top;align=center;html=1;fontSize=12;fontStyle=0;aspect=fixed;pointerEvents=1;shape=mxgraph.aws4.network_load_balancer;strokeWidth=3;" vertex="1" parent="1">
                    <mxGeometry x="174" y="276" width="68" height="68" as="geometry"/>
                </mxCell>
                <mxCell id="54" value="" style="sketch=0;points=[[0,0,0],[0.25,0,0],[0.5,0,0],[0.75,0,0],[1,0,0],[0,1,0],[0.25,1,0],[0.5,1,0],[0.75,1,0],[1,1,0],[0,0.25,0],[0,0.5,0],[0,0.75,0],[1,0.25,0],[1,0.5,0],[1,0.75,0]];outlineConnect=0;fontColor=#232F3E;gradientColor=#4D72F3;gradientDirection=north;fillColor=#3334B9;strokeColor=#ffffff;dashed=0;verticalLabelPosition=bottom;verticalAlign=top;align=center;html=1;fontSize=12;fontStyle=0;aspect=fixed;shape=mxgraph.aws4.resourceIcon;resIcon=mxgraph.aws4.rds;strokeWidth=3;" vertex="1" parent="1">
                    <mxGeometry x="840" y="639" width="78" height="78" as="geometry"/>
                </mxCell>
                <mxCell id="55" value="Public subnet 1" style="points=[[0,0],[0.25,0],[0.5,0],[0.75,0],[1,0],[1,0.25],[1,0.5],[1,0.75],[1,1],[0.75,1],[0.5,1],[0.25,1],[0,1],[0,0.75],[0,0.5],[0,0.25]];outlineConnect=0;gradientColor=none;html=1;whiteSpace=wrap;fontSize=12;fontStyle=1;container=1;pointerEvents=0;collapsible=0;recursiveResize=0;shape=mxgraph.aws4.group;grIcon=mxgraph.aws4.group_security_group;grStroke=0;strokeColor=#248814;fillColor=#E9F3E6;verticalAlign=top;align=left;spacingLeft=30;fontColor=#248814;dashed=0;" vertex="1" parent="1">
                    <mxGeometry x="270" y="80" width="90" height="200" as="geometry"/>
                </mxCell>
                <mxCell id="56" value="" style="sketch=0;outlineConnect=0;fontColor=#232F3E;gradientColor=none;fillColor=#D45B07;strokeColor=none;dashed=0;verticalLabelPosition=bottom;verticalAlign=top;align=center;html=1;fontSize=12;fontStyle=0;aspect=fixed;pointerEvents=1;shape=mxgraph.aws4.ecs_service;strokeWidth=3;" vertex="1" parent="1">
                    <mxGeometry x="643.54" y="664" width="39" height="48" as="geometry"/>
                </mxCell>
                <mxCell id="57" value="" style="sketch=0;points=[[0,0,0],[0.25,0,0],[0.5,0,0],[0.75,0,0],[1,0,0],[0,1,0],[0.25,1,0],[0.5,1,0],[0.75,1,0],[1,1,0],[0,0.25,0],[0,0.5,0],[0,0.75,0],[1,0.25,0],[1,0.5,0],[1,0.75,0]];outlineConnect=0;fontColor=#232F3E;gradientColor=#60A337;gradientDirection=north;fillColor=#277116;strokeColor=#ffffff;dashed=0;verticalLabelPosition=bottom;verticalAlign=top;align=center;html=1;fontSize=12;fontStyle=0;aspect=fixed;shape=mxgraph.aws4.resourceIcon;resIcon=mxgraph.aws4.s3;strokeWidth=3;" vertex="1" parent="1">
                    <mxGeometry x="296" y="654" width="68" height="68" as="geometry"/>
                </mxCell>
                <mxCell id="59" style="edgeStyle=none;html=1;entryX=0.5;entryY=0;entryDx=0;entryDy=0;entryPerimeter=0;strokeWidth=2;startArrow=classic;startFill=1;" edge="1" parent="1" source="39" target="57">
                    <mxGeometry relative="1" as="geometry">
                        <Array as="points">
                            <mxPoint x="410" y="620"/>
                            <mxPoint x="330" y="620"/>
                        </Array>
                    </mxGeometry>
                </mxCell>
                <mxCell id="103" style="edgeStyle=none;html=1;strokeWidth=2;fontColor=#000000;startArrow=classic;startFill=1;" edge="1" parent="1" source="39" target="45">
                    <mxGeometry relative="1" as="geometry">
                        <Array as="points">
                            <mxPoint x="410" y="440"/>
                        </Array>
                    </mxGeometry>
                </mxCell>
                <mxCell id="106" style="edgeStyle=none;html=1;strokeWidth=2;fontColor=#000000;startArrow=classic;startFill=1;" edge="1" parent="1" source="39" target="44">
                    <mxGeometry relative="1" as="geometry">
                        <Array as="points">
                            <mxPoint x="410" y="440"/>
                            <mxPoint x="460" y="440"/>
                            <mxPoint x="460" y="200"/>
                        </Array>
                    </mxGeometry>
                </mxCell>
                <mxCell id="39" value="" style="sketch=0;outlineConnect=0;fontColor=#232F3E;gradientColor=none;fillColor=#4D27AA;strokeColor=none;dashed=0;verticalLabelPosition=bottom;verticalAlign=top;align=center;html=1;fontSize=12;fontStyle=0;aspect=fixed;pointerEvents=1;shape=mxgraph.aws4.endpoints;" vertex="1" parent="1">
                    <mxGeometry x="388" y="468" width="43.69" height="43.69" as="geometry"/>
                </mxCell>
                <mxCell id="60" style="edgeStyle=none;html=1;entryX=0.5;entryY=0;entryDx=0;entryDy=0;entryPerimeter=0;strokeWidth=2;startArrow=classic;startFill=1;" edge="1" parent="1" source="41" target="51">
                    <mxGeometry relative="1" as="geometry"/>
                </mxCell>
                <mxCell id="99" style="edgeStyle=none;html=1;strokeWidth=2;fontColor=#000000;startArrow=classic;startFill=1;" edge="1" parent="1" source="42" target="45">
                    <mxGeometry relative="1" as="geometry">
                        <Array as="points">
                            <mxPoint x="510" y="440"/>
                        </Array>
                    </mxGeometry>
                </mxCell>
                <mxCell id="104" style="edgeStyle=none;html=1;strokeWidth=2;fontColor=#000000;startArrow=classic;startFill=1;" edge="1" parent="1" source="42" target="44">
                    <mxGeometry relative="1" as="geometry">
                        <Array as="points">
                            <mxPoint x="510" y="440"/>
                            <mxPoint x="460" y="440"/>
                            <mxPoint x="460" y="200"/>
                        </Array>
                    </mxGeometry>
                </mxCell>
                <mxCell id="42" value="" style="sketch=0;outlineConnect=0;fontColor=#232F3E;gradientColor=none;fillColor=#4D27AA;strokeColor=none;dashed=0;verticalLabelPosition=bottom;verticalAlign=top;align=center;html=1;fontSize=12;fontStyle=0;aspect=fixed;pointerEvents=1;shape=mxgraph.aws4.endpoints;" vertex="1" parent="1">
                    <mxGeometry x="488" y="468" width="43.69" height="43.69" as="geometry"/>
                </mxCell>
                <mxCell id="64" value="" style="shape=actor;whiteSpace=wrap;html=1;strokeColor=#FF8000;strokeWidth=3;" vertex="1" parent="1">
                    <mxGeometry x="1090" y="176" width="30" height="50" as="geometry"/>
                </mxCell>
                <mxCell id="86" value="" style="shape=waypoint;sketch=0;fillStyle=solid;size=6;pointerEvents=1;points=[];fillColor=none;resizable=0;rotatable=0;perimeter=centerPerimeter;snapToPoint=1;strokeColor=#000000;strokeWidth=4;fontColor=#000000;" vertex="1" parent="1">
                    <mxGeometry x="658.54" y="300.5" width="20" height="20" as="geometry"/>
                </mxCell>
                <mxCell id="89" value="" style="shape=waypoint;sketch=0;fillStyle=solid;size=6;pointerEvents=1;points=[];fillColor=none;resizable=0;rotatable=0;perimeter=centerPerimeter;snapToPoint=1;strokeColor=#000000;strokeWidth=4;fontColor=#000000;" vertex="1" parent="1">
                    <mxGeometry x="820" y="191" width="20" height="20" as="geometry"/>
                </mxCell>
                <mxCell id="94" style="edgeStyle=none;html=1;strokeWidth=2;fontColor=#000000;startArrow=classic;startFill=1;" edge="1" parent="1" source="43" target="64">
                    <mxGeometry relative="1" as="geometry"/>
                </mxCell>
                <mxCell id="101" style="edgeStyle=none;html=1;strokeWidth=2;fontColor=#000000;startArrow=classic;startFill=1;" edge="1" parent="1" source="41" target="45">
                    <mxGeometry relative="1" as="geometry">
                        <mxPoint x="560" y="440" as="targetPoint"/>
                        <Array as="points">
                            <mxPoint x="460" y="440"/>
                        </Array>
                    </mxGeometry>
                </mxCell>
                <mxCell id="105" style="edgeStyle=none;html=1;strokeWidth=2;fontColor=#000000;startArrow=classic;startFill=1;" edge="1" parent="1" source="41" target="44">
                    <mxGeometry relative="1" as="geometry">
                        <Array as="points">
                            <mxPoint x="460" y="200"/>
                        </Array>
                    </mxGeometry>
                </mxCell>
                <mxCell id="107" value="" style="shape=waypoint;sketch=0;fillStyle=solid;size=6;pointerEvents=1;points=[];fillColor=none;resizable=0;rotatable=0;perimeter=centerPerimeter;snapToPoint=1;strokeColor=#000000;strokeWidth=4;fontColor=#000000;" vertex="1" parent="1">
                    <mxGeometry x="450" y="430" width="20" height="20" as="geometry"/>
                </mxCell>
                <mxCell id="108" value="" style="shape=waypoint;sketch=0;fillStyle=solid;size=6;pointerEvents=1;points=[];fillColor=none;resizable=0;rotatable=0;perimeter=centerPerimeter;snapToPoint=1;strokeColor=#000000;strokeWidth=4;fontColor=#000000;" vertex="1" parent="1">
                    <mxGeometry x="500" y="430" width="20" height="20" as="geometry"/>
                </mxCell>
                <mxCell id="112" style="edgeStyle=none;html=1;strokeWidth=2;fontColor=#000000;startArrow=classic;startFill=1;" edge="1" parent="1" source="110" target="111">
                    <mxGeometry relative="1" as="geometry"/>
                </mxCell>
                <mxCell id="110" value="" style="sketch=0;outlineConnect=0;fontColor=#232F3E;gradientColor=none;fillColor=#232F3D;strokeColor=none;dashed=0;verticalLabelPosition=bottom;verticalAlign=top;align=center;html=1;fontSize=12;fontStyle=0;aspect=fixed;pointerEvents=1;shape=mxgraph.aws4.users;strokeWidth=4;" vertex="1" parent="1">
                    <mxGeometry x="40" y="649" width="78" height="78" as="geometry"/>
                </mxCell>
                <mxCell id="111" value="" style="sketch=0;outlineConnect=0;fontColor=#232F3E;gradientColor=none;strokeColor=#232F3E;fillColor=#ffffff;dashed=0;verticalLabelPosition=bottom;verticalAlign=top;align=center;html=1;fontSize=12;fontStyle=0;aspect=fixed;shape=mxgraph.aws4.resourceIcon;resIcon=mxgraph.aws4.internet;strokeWidth=4;" vertex="1" parent="1">
                    <mxGeometry x="15.35" y="446.83" width="127.31" height="127.31" as="geometry"/>
                </mxCell>
                <mxCell id="114" value="" style="outlineConnect=0;gradientColor=none;html=1;whiteSpace=wrap;fontSize=12;fontStyle=0;strokeColor=#858B94;fillColor=none;verticalAlign=top;align=center;fontColor=#858B94;dashed=1;spacingTop=3;strokeWidth=4;" vertex="1" parent="1">
                    <mxGeometry x="280" y="630" width="230" height="130" as="geometry"/>
                </mxCell>
                <mxCell id="115" value="&lt;b&gt;&lt;font style=&quot;font-size: 14px;&quot;&gt;AWS ECS&lt;/font&gt;&lt;/b&gt;" style="text;html=1;align=center;verticalAlign=middle;resizable=0;points=[];autosize=1;strokeColor=none;fillColor=none;fontColor=#000000;" vertex="1" parent="1">
                    <mxGeometry x="559" y="717" width="90" height="30" as="geometry"/>
                </mxCell>
                <mxCell id="116" value="&lt;b&gt;&lt;font style=&quot;font-size: 14px;&quot;&gt;AWS ECR&lt;/font&gt;&lt;/b&gt;&lt;span style=&quot;color: rgba(0, 0, 0, 0); font-family: monospace; font-size: 0px; text-align: start;&quot;&gt;%3CmxGraphModel%3E%3Croot%3E%3CmxCell%20id%3D%220%22%2F%3E%3CmxCell%20id%3D%221%22%20parent%3D%220%22%2F%3E%3CmxCell%20id%3D%222%22%20value%3D%22%26lt%3Bb%26gt%3B%26lt%3Bfont%20style%3D%26quot%3Bfont-size%3A%2014px%3B%26quot%3B%26gt%3BAWS%20ECS%26lt%3B%2Ffont%26gt%3B%26lt%3B%2Fb%26gt%3B%22%20style%3D%22text%3Bhtml%3D1%3Balign%3Dcenter%3BverticalAlign%3Dmiddle%3Bresizable%3D0%3Bpoints%3D%5B%5D%3Bautosize%3D1%3BstrokeColor%3Dnone%3BfillColor%3Dnone%3BfontColor%3D%23000000%3B%22%20vertex%3D%221%22%20parent%3D%221%22%3E%3CmxGeometry%20x%3D%22559%22%20y%3D%22717%22%20width%3D%2290%22%20height%3D%2230%22%20as%3D%22geometry%22%2F%3E%3C%2FmxCell%3E%3C%2Froot%3E%3C%2FmxGraphModel%3E&lt;/span&gt;" style="text;html=1;align=center;verticalAlign=middle;resizable=0;points=[];autosize=1;strokeColor=none;fillColor=none;fontColor=#000000;" vertex="1" parent="1">
                    <mxGeometry x="415" y="723" width="90" height="30" as="geometry"/>
                </mxCell>
                <mxCell id="117" value="&lt;b&gt;&lt;font style=&quot;font-size: 14px;&quot;&gt;AWS S3&lt;/font&gt;&lt;/b&gt;" style="text;html=1;align=center;verticalAlign=middle;resizable=0;points=[];autosize=1;strokeColor=none;fillColor=none;fontColor=#000000;" vertex="1" parent="1">
                    <mxGeometry x="285" y="722" width="80" height="30" as="geometry"/>
                </mxCell>
                <mxCell id="118" value="&lt;b&gt;&lt;font style=&quot;font-size: 14px;&quot;&gt;Container's Images repositary&lt;/font&gt;&lt;/b&gt;" style="text;html=1;align=center;verticalAlign=middle;resizable=0;points=[];autosize=1;strokeColor=none;fillColor=none;fontColor=#000000;" vertex="1" parent="1">
                    <mxGeometry x="280" y="770" width="220" height="30" as="geometry"/>
                </mxCell>
                <mxCell id="121" value="&lt;p style=&quot;line-height: 0%;&quot;&gt;&lt;b&gt;ECS/ECR/S3 endpoints&lt;/b&gt;&lt;/p&gt;" style="text;align=center;verticalAlign=middle;resizable=0;points=[];autosize=1;strokeColor=none;fillColor=none;fontColor=#000000;imageAspect=1;glass=1;labelBackgroundColor=#E6E6E6;fontSize=14;html=1;" vertex="1" parent="1">
                    <mxGeometry x="370" y="530" width="180" height="40" as="geometry"/>
                </mxCell>
                <mxCell id="124" value="&lt;p style=&quot;line-height: 0%;&quot;&gt;&lt;b&gt;ECS Cluster&lt;/b&gt;&lt;/p&gt;" style="text;align=center;verticalAlign=middle;resizable=0;points=[];autosize=1;strokeColor=none;fillColor=none;fontColor=#000000;imageAspect=1;glass=1;labelBackgroundColor=#E6E6E6;fontSize=14;html=1;" vertex="1" parent="1">
                    <mxGeometry x="620" y="520" width="100" height="40" as="geometry"/>
                </mxCell>
                <mxCell id="125" value="&lt;p style=&quot;line-height: 0%;&quot;&gt;&lt;b&gt;Service&lt;/b&gt;&lt;/p&gt;" style="text;align=center;verticalAlign=middle;resizable=0;points=[];autosize=1;strokeColor=none;fillColor=none;fontColor=#000000;imageAspect=1;glass=1;labelBackgroundColor=#E6E6E6;fontSize=14;html=1;" vertex="1" parent="1">
                    <mxGeometry x="635.1600000000001" y="446.83" width="70" height="40" as="geometry"/>
                </mxCell>
                <mxCell id="126" value="&lt;p style=&quot;line-height: 0%;&quot;&gt;&lt;b&gt;Service&lt;/b&gt;&lt;/p&gt;" style="text;align=center;verticalAlign=middle;resizable=0;points=[];autosize=1;strokeColor=none;fillColor=none;fontColor=#000000;imageAspect=1;glass=1;labelBackgroundColor=#E6E6E6;fontSize=14;html=1;" vertex="1" parent="1">
                    <mxGeometry x="633.5400000000001" y="158" width="70" height="40" as="geometry"/>
                </mxCell>
                <mxCell id="127" value="&lt;b&gt;&lt;font style=&quot;font-size: 14px;&quot;&gt;AWS RDS&lt;br&gt;PostgreSQL&lt;br&gt;&lt;/font&gt;&lt;/b&gt;" style="text;html=1;align=center;verticalAlign=middle;resizable=0;points=[];autosize=1;strokeColor=none;fillColor=none;fontColor=#000000;" vertex="1" parent="1">
                    <mxGeometry x="829" y="712" width="100" height="50" as="geometry"/>
                </mxCell>
            </root>
        </mxGraphModel>
    </diagram>
</mxfile>
